<svg id="visual" viewBox="0 0 1440 700" width="1440" height="700" xmlns="http://www.w3.org/2000/svg" xmlns:xlink="http://www.w3.org/1999/xlink" version="1.1"><rect x="0" y="0" width="1440" height="700" fill="#ffffff"></rect><path d="M0 438L60 473.3C120 508.7 240 579.3 360 604.3C480 629.3 600 608.7 720 550.2C840 491.7 960 395.3 1080 380.2C1200 365 1320 431 1380 464L1440 497L1440 701L1380 701C1320 701 1200 701 1080 701C960 701 840 701 720 701C600 701 480 701 360 701C240 701 120 701 60 701L0 701Z" fill="#000000" stroke-linecap="round" stroke-linejoin="miter"></path></svg>