<svg id="visual" viewBox="0 0 1440 700" width="1440" height="700" xmlns="http://www.w3.org/2000/svg" xmlns:xlink="http://www.w3.org/1999/xlink" version="1.1"><rect x="0" y="0" width="1440" height="700" fill="#0c0c0c"></rect><path d="M0 212L60 270.5C120 329 240 446 360 498C480 550 600 537 720 509.5C840 482 960 440 1080 464C1200 488 1320 578 1380 623L1440 668L1440 701L1380 701C1320 701 1200 701 1080 701C960 701 840 701 720 701C600 701 480 701 360 701C240 701 120 701 60 701L0 701Z" fill="#000000" stroke-linecap="round" stroke-linejoin="miter"></path></svg>