<svg id="visual" viewBox="0 0 900 600" width="900" height="600" xmlns="http://www.w3.org/2000/svg" xmlns:xlink="http://www.w3.org/1999/xlink" version="1.1"><rect x="0" y="0" width="900" height="600" fill="#ffffff"></rect><path d="M0 309L129 309L129 362L257 362L257 296L386 296L386 252L514 252L514 309L643 309L643 379L771 379L771 320L900 320L900 371L900 601L900 601L771 601L771 601L643 601L643 601L514 601L514 601L386 601L386 601L257 601L257 601L129 601L129 601L0 601Z" fill="#009473"></path><path d="M0 400L129 400L129 412L257 412L257 392L386 392L386 351L514 351L514 422L643 422L643 414L771 414L771 364L900 364L900 401L900 601L900 601L771 601L771 601L643 601L643 601L514 601L514 601L386 601L386 601L257 601L257 601L129 601L129 601L0 601Z" fill="#08c89e"></path><path d="M0 511L129 511L129 481L257 481L257 473L386 473L386 472L514 472L514 473L643 473L643 524L771 524L771 531L900 531L900 465L900 601L900 601L771 601L771 601L643 601L643 601L514 601L514 601L386 601L386 601L257 601L257 601L129 601L129 601L0 601Z" fill="#11ffcb"></path></svg>